<?xml version="1.0" encoding="utf-8"?>
<!-- Generator: Adobe Illustrator 27.9.1, SVG Export Plug-In . SVG Version: 6.00 Build 0)  -->
<svg version="1.1" id="Capa_1" xmlns="http://www.w3.org/2000/svg" xmlns:xlink="http://www.w3.org/1999/xlink" x="0px" y="0px"
	 viewBox="0 0 889.9 632.7" style="enable-background:new 0 0 889.9 632.7;" xml:space="preserve">
<style type="text/css">
	.st0{fill:#FFFFFF;}
</style>
<g transform="translate(0.000000,1280.000000) scale(0.100000,-0.100000)">
	<path class="st0" d="M636,12792.8c-278-46-510-248-604-524l-27-80l-3-2521l-2-2521l25-98c77-303,333-525,650-564
		c123-15,7424-16,7544-1c186,24,326,93,456,224c118,120,178,232,210,391c14,72,15,322,13,2580l-3,2500l-28,80
		c-86,253-259,426-512,513l-80,27l-3795,1C2393,12800.8,663,12797.8,636,12792.8z M8125,12314.8c-11-10-330-290-710-621
		c-379-332-1200-1049-1823-1594c-844-738-1149-1000-1197-1025c-118-63-269-52-367,27c-37,29-3308,3221-3308,3228c0,2,1671,4,3712,4
		C8080,12333.8,8144,12333.8,8125,12314.8z M8428,8458.8l-3-1165l-1099,1330c-604,732-1107,1341-1117,1354l-19,24l1118,976l1117,976
		l3-1165C8429,10147.8,8429,9099.8,8428,8458.8z M1489,10919.8c557-543,1011-992,1009-997c-4-12-2022-2457-2028-2458
		c-3-1-5,1000-5,2224s3,2224,6,2223C474,11909.8,932,11463.8,1489,10919.8z M6975,8313.8l1127-1365l-3667-3c-2017-1-3688,1-3712,5
		c-25,5-46,12-47,16c-1,9,2155,2625,2165,2626c3,1,195-184,428-411c232-227,448-432,479-456c274-213,692-213,977,1
		c33,25,296,252,585,505s528,457,532,454C5845,9681.8,6355,9064.8,6975,8313.8z"/>
</g>
</svg>
