<?xml version="1.0" encoding="utf-8"?>
<!-- Generator: Adobe Illustrator 27.9.1, SVG Export Plug-In . SVG Version: 6.00 Build 0)  -->
<svg version="1.1" id="Capa_1" xmlns="http://www.w3.org/2000/svg" xmlns:xlink="http://www.w3.org/1999/xlink" x="0px" y="0px"
	 viewBox="0 0 529.6 529.6" style="enable-background:new 0 0 529.6 529.6;" xml:space="preserve">
<style type="text/css">
	.st0{fill:#FFFFFF;}
	.st1{fill:#0A66C2;}
</style>
<rect x="39.2" y="54.7" class="st0" width="450" height="418"/>
<path class="st1" d="M451.2,451.2h-78.5V328.4c0-29.3-0.5-67-40.8-67c-40.9,0-47.1,31.9-47.1,64.9v125h-78.5V198.5h75.3v34.5h1.1
	c15.4-26.3,43.9-41.9,74.3-40.8c79.5,0,94.2,52.3,94.2,120.4L451.2,451.2z M117.8,164c-25.1,0-45.5-20.4-45.5-45.5
	c0-25.1,20.4-45.5,45.5-45.5c25.1,0,45.5,20.4,45.5,45.5S143,164,117.8,164L117.8,164 M157.1,451.2H78.5V198.5h78.6V451.2z M490.4,0
	H39.1C17.8-0.2,0.3,16.9,0,38.2v453.2c0.3,21.3,17.7,38.4,39.1,38.2h451.3c21.4,0.3,38.9-16.8,39.2-38.2V38.2
	C529.3,16.8,511.7-0.3,490.4,0"/>
</svg>
