<?xml version="1.0" encoding="utf-8"?>
<!-- Generator: Adobe Illustrator 27.9.1, SVG Export Plug-In . SVG Version: 6.00 Build 0)  -->
<svg version="1.1" id="Capa_1" xmlns="http://www.w3.org/2000/svg" xmlns:xlink="http://www.w3.org/1999/xlink" x="0px" y="0px"
	 viewBox="0 0 476.6 478.8" style="enable-background:new 0 0 476.6 478.8;" xml:space="preserve">
<style type="text/css">
	.st0{fill:url(#SVGID_1_);}
	.st1{fill:url(#SVGID_00000109738032942325166960000010479575421078693262_);}
	.st2{fill-rule:evenodd;clip-rule:evenodd;fill:#FFFFFF;}
</style>
<g>
	
		<linearGradient id="SVGID_1_" gradientUnits="userSpaceOnUse" x1="7.4924" y1="2041.3258" x2="7.4924" y2="1500.9507" gradientTransform="matrix(0.8515 0 0 0.8553 231.9432 -1275.5448)">
		<stop  offset="0" style="stop-color:#20B038"/>
		<stop  offset="1" style="stop-color:#60D66A"/>
	</linearGradient>
	<path class="st0" d="M10.2,237.3c0,40.4,10.5,79.8,30.6,114.5L8.3,470.5l121.5-31.8c33.5,18.2,71.1,27.9,109.5,27.9h0.1
		c126.3,0,229-102.7,229.1-229c0-61.2-23.8-118.7-67-162C358.1,32.2,300.6,8.3,239.3,8.3C113,8.3,10.2,111,10.2,237.3"/>
	
		<linearGradient id="SVGID_00000086650080695985705740000000217536493442080178_" gradientUnits="userSpaceOnUse" x1="17.1758" y1="2041.7063" x2="17.1758" y2="1481.9473" gradientTransform="matrix(0.8515 0 0 0.8553 223.6983 -1267.5695)">
		<stop  offset="0" style="stop-color:#F9F9F9"/>
		<stop  offset="1" style="stop-color:#FFFFFF"/>
	</linearGradient>
	<path style="fill:url(#SVGID_00000086650080695985705740000000217536493442080178_);" d="M2,237.2c0,41.8,10.9,82.6,31.7,118.6
		L0,478.8l125.8-33c34.7,18.9,73.7,28.9,113.4,28.9h0.1c130.8,0,237.3-106.4,237.3-237.2c0-63.4-24.6-123-69.4-167.9
		C362.4,24.7,302.8,0,239.3,0C108.5,0,2,106.4,2,237.2L2,237.2z M76.9,349.7l-4.7-7.5C52.5,310.8,42,274.5,42.1,237.3
		c0-108.7,88.5-197.2,197.3-197.2c52.7,0,102.2,20.6,139.5,57.8c37.2,37.3,57.7,86.8,57.7,139.5c0,108.7-88.5,197.2-197.3,197.2
		h-0.1c-35.4,0-70.1-9.5-100.4-27.5l-7.2-4.3L57,422.4L76.9,349.7z"/>
	<path class="st2" d="M180,138.1c-4.4-9.9-9.1-10.1-13.3-10.2c-3.5-0.1-7.4-0.1-11.4-0.1c-4,0-10.4,1.5-15.8,7.4
		c-5.4,5.9-20.8,20.3-20.8,49.5c0,29.2,21.3,57.4,24.2,61.3c3,4,41,65.7,101.3,89.5c50.1,19.8,60.3,15.8,71.2,14.8
		c10.9-1,35.1-14.3,40-28.2c4.9-13.8,4.9-25.7,3.5-28.2c-1.5-2.5-5.4-4-11.4-6.9c-5.9-3-35.1-17.3-40.5-19.3c-5.4-2-9.4-3-13.3,3
		c-4,5.9-15.3,19.3-18.8,23.2c-3.5,4-6.9,4.5-12.8,1.5c-5.9-3-25-9.2-47.7-29.4c-17.6-15.7-29.5-35.1-33-41.1
		c-3.5-5.9-0.4-9.1,2.6-12.1c2.7-2.7,5.9-6.9,8.9-10.4c3-3.5,3.9-5.9,5.9-9.9c2-4,1-7.4-0.5-10.4C196.8,179.1,185.3,149.8,180,138.1
		"/>
</g>
</svg>
